<svg id="logo1" width="305" viewBox="0 0 228.75 108.75" height="145" preserveAspectRatio="xMidYMid" version="1.0" xml:space="preserve" xmlns="http://www.w3.org/2000/svg"><defs><filter x="0" y="0" width="1" height="1" id="a"><feColorMatrix values="0 0 0 0 1 0 0 0 0 1 0 0 0 0 1 0 0 0 1 0" color-interpolation-filters="sRGB"></feColorMatrix></filter><filter x="0" y="0" width="1" height="1" id="b"><feColorMatrix values="0 0 0 0 1 0 0 0 0 1 0 0 0 0 1 0.2126 0.7152 0.0722 0 0" color-interpolation-filters="sRGB"></feColorMatrix></filter><clipPath id="c"><path fill="#000" data-name="Rectangle 6613" d="M0 0h64.377v57.589H0z"></path></clipPath></defs><path d="M131.283 92.312h8.188v.574h-7.64v7.516h-.548v-8.09zm0 0" fill-opacity=".97" fill-rule="evenodd"></path><path fill="#000" d="M206.178 96.253c.93-.027 1.847.035 2.762.196a4.67 4.67 0 0 1 2.27 1.035c.398.402.64.879.722 1.437.011.133.015.27.011.406-.972.004-1.941 0-2.91-.019a1.293 1.293 0 0 0-.601-.73 2.88 2.88 0 0 0-1.016-.317 6.062 6.062 0 0 0-1.84.059 2.41 2.41 0 0 0-.918.425 1.52 1.52 0 0 0-.468 1.204c0 .648.277 1.148.824 1.496.383.195.789.308 1.222.336a4.622 4.622 0 0 0 2.047-.278c.383-.183.633-.476.75-.883h2.91c.04.524-.09.997-.386 1.426a3.28 3.28 0 0 1-1.727 1.278 8.219 8.219 0 0 1-2.3.418c-.583.011-1.165.011-1.747 0a7.384 7.384 0 0 1-2.59-.575c-.992-.472-1.609-1.242-1.847-2.304a5.462 5.462 0 0 1 .093-2.164 3.23 3.23 0 0 1 1.399-1.696 7.039 7.039 0 0 1 2.402-.683c.317-.028.63-.047.938-.067zm0 0" fill-rule="evenodd"></path><path fill="#000" d="M136.072 96.402c2.047-.008 4.094 0 6.141.027.77.047 1.523.195 2.25.445 1.414.559 2.113 1.586 2.105 3.09.04 1.465-.613 2.5-1.953 3.11a8.132 8.132 0 0 1-2.742.539c-1.933.008-3.867.011-5.8.008V96.4zm2.817 1.906c.84-.004 1.676 0 2.515.012.426.02.836.097 1.239.238.66.254.992.734.996 1.434 0 .734-.352 1.222-1.051 1.472a4.356 4.356 0 0 1-1.223.223c-.824.008-1.652.012-2.476.008v-3.387zm0 0" fill-opacity=".992" fill-rule="evenodd"></path><path d="M150.19 96.402c1.265-.004 2.53 0 3.793.02 1.28 2.394 2.55 4.796 3.812 7.198-1.027.008-2.055 0-3.078-.02-.188-.378-.375-.757-.567-1.136a245.155 245.155 0 0 0-4.148 0l-.562 1.137c-.95.027-1.903.027-2.856 0 1.207-2.398 2.41-4.797 3.606-7.2zm1.84 1.797c.413.804.82 1.617 1.222 2.433-.797.016-1.59.012-2.387-.012.395-.804.782-1.613 1.164-2.421zm0 0" fill-opacity=".993" fill-rule="evenodd"></path><path fill="#000" d="M158.096 96.402c2.37-.004 4.742 0 7.117.011.55.008 1.082.114 1.594.313.586.238.93.668 1.023 1.285.113.758-.16 1.328-.816 1.715-.188.098-.383.18-.582.25.433.105.8.32 1.097.644.204.262.313.559.34.891.004.512.012 1.024.016 1.535.015.2.058.39.125.574-.957.004-1.918 0-2.875-.008a.388.388 0 0 1-.067-.16l-.015-1.07c0-.766-.383-1.168-1.156-1.215-.996-.008-1.989-.012-2.985-.008v2.461h-2.816v-7.219zm2.816 1.757c1.153-.008 2.301.004 3.453.028.45.07.637.328.555.77a.616.616 0 0 1-.574.417c-1.145.028-2.29.035-3.434.028V98.16zM168.025 96.421a69.967 69.967 0 0 1 3.137 0c.551 1.567 1.098 3.133 1.645 4.7.492-1.57.976-3.141 1.453-4.72 1.058-.003 2.117 0 3.176.02.496 1.54.984 3.082 1.472 4.625.535-1.539 1.067-3.082 1.594-4.625.961-.02 1.922-.023 2.883-.02-.938 2.403-1.883 4.801-2.836 7.2a65.116 65.116 0 0 1-3.266 0 874.021 874.021 0 0 1-1.511-4.516c-.48 1.512-.973 3.024-1.473 4.528a99.86 99.86 0 0 1-3.418-.012c-.95-2.395-1.898-4.79-2.856-7.18zm0 0" fill-opacity=".992" fill-rule="evenodd"></path><path fill="#000" d="M183.725 96.402h2.797v7.218h-2.797v-7.218zm0 0" fill-opacity=".993" fill-rule="evenodd"></path><path fill="#000" d="M187.44 96.402c1.054-.004 2.105 0 3.156.011 1.41 1.348 2.816 2.7 4.215 4.063.008-1.36.011-2.715.008-4.074h2.797v7.218c-.942.004-1.887 0-2.833-.008a681.636 681.636 0 0 1-4.535-4.34c-.008 1.45-.011 2.899-.008 4.348h-2.8v-7.218zM212.131 96.421c1.2-.023 2.398-.023 3.605-.008l1.829 2.098c.62-.695 1.238-1.398 1.851-2.098a118.95 118.95 0 0 1 3.34 0c-1.05 1.157-2.102 2.317-3.152 3.477 1.109 1.234 2.21 2.477 3.304 3.723-1.152.011-2.304.011-3.457 0-.68-.743-1.355-1.485-2.027-2.23-.672.737-1.34 1.484-2.008 2.23-1.133.011-2.266.011-3.398 0 1.117-1.23 2.23-2.461 3.343-3.696a923.929 923.929 0 0 0-3.23-3.496zm0 0" fill-rule="evenodd"></path><path fill="#000" d="M227.318 99.753h.563c.004 2.688 0 5.38-.008 8.07-2.73.016-5.461.024-8.195.016v-.574h7.64v-7.512zm0 0" fill-opacity=".953" fill-rule="evenodd"></path><path fill="#000" d="M135.02 85.959a2.27 2.27 0 0 1-1.078-.266 2.417 2.417 0 0 1-.844-.734v3.031h-.89V80.1h.89v.843c.196-.289.469-.523.813-.703.343-.187.71-.281 1.11-.281.507 0 .952.12 1.327.36.383.241.68.585.89 1.03.22.45.329.985.329 1.61 0 .617-.11 1.148-.328 1.594a2.47 2.47 0 0 1-.89 1.046c-.376.239-.821.36-1.329.36Zm-.219-.797c.383 0 .711-.094.985-.281.27-.196.476-.461.625-.797.144-.332.218-.707.218-1.125 0-.426-.074-.805-.218-1.14a1.838 1.838 0 0 0-.625-.782c-.274-.188-.602-.281-.985-.281-.355 0-.687.09-1 .265-.312.18-.547.391-.703.641v2.578c.156.25.39.469.703.656.313.18.645.266 1 .266zM141.485 85.959c-.586 0-1.09-.137-1.516-.406a2.717 2.717 0 0 1-.969-1.079 3.313 3.313 0 0 1-.343-1.515c0-.55.113-1.055.343-1.516.227-.457.551-.816.969-1.078.426-.27.93-.406 1.516-.406.582 0 1.082.137 1.5.406.425.262.754.621.984 1.078.227.461.344.965.344 1.516 0 .555-.117 1.058-.344 1.515-.23.45-.559.81-.984 1.079-.418.27-.918.406-1.5.406zm0-.797c.406 0 .75-.098 1.03-.297.282-.207.493-.476.642-.812a2.79 2.79 0 0 0 .218-1.094c0-.395-.074-.758-.218-1.094a1.9 1.9 0 0 0-.641-.797c-.281-.207-.625-.312-1.031-.312-.407 0-.75.105-1.032.312-.28.2-.496.465-.64.797a2.67 2.67 0 0 0-.219 1.094c0 .387.07.75.219 1.094.144.336.36.605.64.812.282.2.625.297 1.032.297zM151.605 85.818h-.89l-1.5-4.594-1.485 4.594h-.89l-1.828-5.719h.922l1.406 4.563 1.5-4.563h.765l1.5 4.563 1.391-4.563h.938zM157.052 85.959c-.574 0-1.078-.125-1.516-.375a2.649 2.649 0 0 1-1.031-1.063c-.25-.457-.375-.976-.375-1.562 0-.55.117-1.055.36-1.516.25-.457.581-.816 1-1.078a2.66 2.66 0 0 1 1.452-.406c.57 0 1.063.137 1.47.406.413.274.734.64.952 1.11.22.46.328.976.328 1.546v.235h-4.625c.032.355.13.683.297.984.164.293.395.531.688.719.3.18.656.265 1.062.265.332 0 .657-.062.97-.187.312-.125.581-.305.812-.547l.421.578a3.068 3.068 0 0 1-1 .672 3.496 3.496 0 0 1-1.265.219zm1.765-3.375c0-.281-.07-.567-.203-.86a1.873 1.873 0 0 0-.625-.734c-.273-.195-.625-.297-1.062-.297-.399 0-.735.102-1.016.297-.273.2-.48.445-.625.734a2.09 2.09 0 0 0-.219.86ZM162.02 85.818h-.892V80.1h.891v.907c.227-.301.504-.547.828-.735a2.093 2.093 0 0 1 1.078-.297v.907c-.062-.008-.12-.016-.172-.016a1.17 1.17 0 0 0-.171-.016c-.188 0-.387.047-.594.141-.211.086-.403.2-.578.344-.18.137-.309.281-.39.437zM167.632 85.959c-.574 0-1.078-.125-1.516-.375a2.649 2.649 0 0 1-1.03-1.063c-.25-.457-.376-.976-.376-1.562 0-.55.117-1.055.36-1.516.25-.457.582-.816 1-1.078a2.66 2.66 0 0 1 1.453-.406c.57 0 1.062.137 1.468.406.414.274.735.64.954 1.11.218.46.328.976.328 1.546v.235h-4.625c.03.355.129.683.297.984.164.293.394.531.687.719.3.18.656.265 1.063.265.332 0 .656-.062.968-.187.313-.125.582-.305.813-.547l.422.578a3.068 3.068 0 0 1-1 .672 3.496 3.496 0 0 1-1.266.219zm1.766-3.375c0-.281-.07-.567-.203-.86a1.873 1.873 0 0 0-.625-.734c-.274-.195-.625-.297-1.063-.297-.398 0-.734.102-1.016.297-.273.2-.48.445-.625.734a2.09 2.09 0 0 0-.218.86ZM176.74 85.818h-.89v-.86c-.212.294-.485.532-.829.72-.336.187-.7.28-1.094.28-.5 0-.945-.12-1.328-.359a2.415 2.415 0 0 1-.906-1.03c-.21-.458-.312-.993-.312-1.61 0-.613.101-1.145.312-1.594.219-.445.52-.789.906-1.031a2.38 2.38 0 0 1 1.328-.375c.383 0 .743.09 1.079.265.332.18.613.422.843.735v-3.047h.89zm-2.594-.656a2.03 2.03 0 0 0 1-.266c.32-.187.555-.398.703-.64v-2.578c-.148-.258-.383-.477-.703-.657a2.072 2.072 0 0 0-1-.265c-.387 0-.719.101-1 .297-.273.187-.48.449-.625.78-.148.325-.219.7-.219 1.126 0 .418.07.797.22 1.14.144.336.35.594.624.782.281.187.613.281 1 .281zM182.48 84.271c.157.243.391.45.704.625.312.18.648.266 1.015.266.383 0 .711-.094.985-.281.27-.188.476-.446.625-.782a2.91 2.91 0 0 0 .218-1.14c0-.426-.074-.8-.218-1.125a1.838 1.838 0 0 0-.625-.781 1.651 1.651 0 0 0-.985-.297c-.367 0-.703.09-1.015.265a1.91 1.91 0 0 0-.704.657zm0 1.547h-.89v-7.906h.89v3.047c.227-.313.508-.555.844-.735a2.27 2.27 0 0 1 1.078-.265c.508 0 .953.125 1.328.375.383.242.68.586.891 1.031.219.45.328.98.328 1.594 0 .617-.11 1.152-.328 1.61-.21.448-.508.792-.89 1.03-.387.239-.829.36-1.329.36-.398 0-.765-.094-1.109-.281a2.416 2.416 0 0 1-.813-.72zM188.09 88.053l.125-.797a.9.9 0 0 0 .25.062c.094.02.176.031.25.031.195 0 .36-.042.484-.125.133-.085.254-.246.36-.484l.375-.86-2.391-5.78h.969l1.906 4.687 1.906-4.688h.953l-2.859 6.875c-.18.415-.414.711-.703.891-.281.176-.61.27-.984.281-.094 0-.204-.011-.329-.03a1.223 1.223 0 0 1-.312-.063zm0 0"></path><g data-name="Group 9223" clip-path="url(#c)" transform="translate(.657 .242) scale(1.87305)" fill="#000"><path data-name="Path 1003" d="M13.409 30.695A6.472 6.472 0 0 1 11 33.171a7.025 7.025 0 0 1-3.293.7 6.361 6.361 0 0 1-5.84-3.036Q0 27.8 0 20.789q0-7.011 1.869-10.113A6.324 6.324 0 0 1 7.71 7.569a6.08 6.08 0 0 1 3.106.748 7.316 7.316 0 0 1 2.312 2.243h.094V0h6.448v33.358H13.5v-2.663Zm-6.33-3.715a2.634 2.634 0 0 0 2.733 2.079 2.662 2.662 0 0 0 2.78-2.079 22.76 22.76 0 0 0 .631-6.191 22.763 22.763 0 0 0-.631-6.189 2.662 2.662 0 0 0-2.78-2.079A2.634 2.634 0 0 0 7.079 14.6a22.763 22.763 0 0 0-.631 6.189 22.76 22.76 0 0 0 .631 6.191"></path><path data-name="Path 1004" d="M28.685 25.975a3.9 3.9 0 0 0 .865 2.64 3.111 3.111 0 0 0 2.5 1 3.58 3.58 0 0 0 2.382-.748 2.763 2.763 0 0 0 .888-2.243 2.354 2.354 0 0 0-.7-1.845 5.47 5.47 0 0 0-1.634-1l-4.534-1.635a8.6 8.6 0 0 1-4.018-2.64 6.8 6.8 0 0 1-1.355-4.368 8.292 8.292 0 0 1 .514-2.919 6.132 6.132 0 0 1 1.636-2.407 8.133 8.133 0 0 1 2.872-1.636 13 13 0 0 1 4.229-.607q4.391 0 6.493 1.869a6.69 6.69 0 0 1 2.1 5.279v1.029h-5.79a5.131 5.131 0 0 0-.631-2.872 2.506 2.506 0 0 0-2.217-.913 3.465 3.465 0 0 0-2.126.678 2.37 2.37 0 0 0-.91 2.032 2.654 2.654 0 0 0 .583 1.681 4.483 4.483 0 0 0 2.22 1.263l3.877 1.308a8.775 8.775 0 0 1 4.3 2.686 7.283 7.283 0 0 1 1.256 4.508 8.016 8.016 0 0 1-.7 3.481 6.831 6.831 0 0 1-1.938 2.454 7.593 7.593 0 0 1-2.944 1.4 15.692 15.692 0 0 1-3.762.42 16.717 16.717 0 0 1-4.508-.513 6.576 6.576 0 0 1-2.848-1.542 5.568 5.568 0 0 1-1.472-2.5 12.018 12.018 0 0 1-.42-3.293v-.888h5.792Z"></path><path data-name="Path 1005" d="M51.158 0v10.559h.094a7.316 7.316 0 0 1 2.306-2.242 6.08 6.08 0 0 1 3.106-.748 6.326 6.326 0 0 1 5.84 3.108q1.869 3.106 1.869 10.113t-1.864 10.044a6.362 6.362 0 0 1-5.84 3.036 7.025 7.025 0 0 1-3.293-.7 6.461 6.461 0 0 1-2.407-2.476h-.092v2.663h-6.168V0Zm.631 26.98a2.662 2.662 0 0 0 2.78 2.079 2.633 2.633 0 0 0 2.733-2.079 22.76 22.76 0 0 0 .631-6.191 22.763 22.763 0 0 0-.631-6.189 2.633 2.633 0 0 0-2.733-2.079 2.662 2.662 0 0 0-2.781 2.079 22.763 22.763 0 0 0-.63 6.189 22.76 22.76 0 0 0 .631 6.191" fill="#000"></path><path data-name="Rectangle 6610" d="M22.355 37.921h19.668v19.668H22.355z"></path><path data-name="Rectangle 6611" d="M44.709 37.921h19.668v19.668H44.709z" fill="#000"></path><path data-name="Rectangle 6612" d="M.417 37.921h19.251v19.668H.417z" fill="#000"></path></g></svg>