<?xml version="1.0" encoding="UTF-8"?>
<svg id="Layer_2" data-name="Layer 2" xmlns="http://www.w3.org/2000/svg" viewBox="0 0 335.7 185.71">
  <defs>
    <style>
      .cls-1 {
        fill: #333;
      }
    </style>
  </defs>
  <g id="Layer_1-2" data-name="Layer 1">
    <path class="cls-1" d="m26.13,172.95c1.92,0,3.31.62,4.61,1.65.15.14.17.35.02.49-.17.16-.38.34-.53.49-.17.18-.29.16-.49-.02-.97-.79-2.34-1.38-3.62-1.38-3.01,0-5.29,2.34-5.29,5.08s2.28,5.12,5.29,5.12c2.1,0,3.43-.74,3.43-.74v-2.48h-2.19c-.21,0-.36-.14-.36-.32v-.65c0-.2.15-.34.36-.34h3.29c.19,0,.34.16.34.34v4.05l-.15.28s-1.94,1.17-4.7,1.17c-3.81,0-6.87-2.82-6.87-6.36s3.06-6.39,6.87-6.39"/>
    <path class="cls-1" d="m34.83,173.47c0-.17.17-.33.36-.33h.76c.19,0,.36.16.36.33v11.72c0,.18-.17.34-.36.34h-.76c-.19,0-.36-.16-.36-.34v-11.72Z"/>
    <path class="cls-1" d="m39.05,173.59c-.11-.23.04-.46.32-.46h.76c.17,0,.29.11.32.19l4.74,9.92h.07l4.74-9.92c.04-.09.17-.19.32-.19h.76c.28,0,.44.23.32.46l-5.78,11.92c-.06.11-.18.19-.33.19h-.19c-.13,0-.27-.09-.33-.19l-5.75-11.92Z"/>
    <path class="cls-1" d="m54.17,173.47c0-.17.17-.33.36-.33h.76c.19,0,.36.16.36.33v11.72c0,.18-.17.34-.36.34h-.76c-.19,0-.36-.16-.36-.34v-11.72Z"/>
    <path class="cls-1" d="m60.2,173.27c0-.18.17-.32.36-.32h.47l8.59,9.95h.04v-9.44c0-.17.15-.33.36-.33h.67c.18,0,.36.16.36.33v11.92c0,.18-.17.32-.36.32h-.35l-8.73-10.14h-.02v9.63c0,.18-.15.34-.36.34h-.66c-.19,0-.36-.16-.36-.34v-11.92Z"/>
    <path class="cls-1" d="m81.51,172.95c1.92,0,3.31.62,4.6,1.65.15.14.17.35.02.49-.17.16-.38.34-.53.49-.17.18-.29.16-.5-.02-.97-.79-2.34-1.38-3.62-1.38-3.01,0-5.29,2.34-5.29,5.08s2.29,5.12,5.29,5.12c2.09,0,3.42-.74,3.42-.74v-2.48h-2.19c-.21,0-.36-.14-.36-.32v-.65c0-.2.15-.34.36-.34h3.29c.19,0,.34.16.34.34v4.05l-.15.28s-1.94,1.17-4.7,1.17c-3.81,0-6.88-2.82-6.88-6.36s3.07-6.39,6.88-6.39"/>
    <path class="cls-1" d="m102.31,181.32c-.93-1.93-1.85-3.88-2.78-5.81h-.15l-2.78,5.81h5.71Zm-9.04,3.75l5.78-11.92c.06-.11.15-.2.32-.2h.19c.17,0,.27.09.33.2l5.75,11.92c.11.23-.04.46-.32.46h-.76c-.17,0-.29-.11-.32-.2l-1.41-2.92h-6.75l-1.39,2.92c-.04.09-.15.2-.32.2h-.77c-.28,0-.44-.23-.32-.46"/>
    <path class="cls-1" d="m108.39,173.27c0-.18.17-.32.36-.32h.48l8.58,9.95h.04v-9.44c0-.17.15-.33.36-.33h.67c.19,0,.36.16.36.33v11.92c0,.18-.17.32-.36.32h-.34l-8.73-10.14h-.02v9.63c0,.18-.15.34-.36.34h-.67c-.19,0-.36-.16-.36-.34v-11.92Z"/>
    <path class="cls-1" d="m123.79,173.47c0-.17.17-.33.36-.33h.76c.19,0,.36.16.36.33v11.72c0,.18-.17.34-.36.34h-.76c-.19,0-.36-.16-.36-.34v-11.72Z"/>
    <path class="cls-1" d="m131.33,173.21c.04-.14.19-.25.35-.25h.3c.13,0,.29.09.33.19l3.77,9.76h.1l3.71-9.76c.04-.1.19-.19.32-.19h.31c.15,0,.3.11.34.25l2.45,11.9c.06.25-.06.43-.34.43h-.76c-.15,0-.3-.13-.34-.25l-1.69-9.12h-.08l-3.5,9.35c-.04.11-.21.19-.32.19h-.34c-.11,0-.29-.09-.32-.19l-3.54-9.35h-.08l-1.65,9.12c-.02.12-.2.25-.34.25h-.76c-.29,0-.4-.18-.35-.43l2.46-11.9Z"/>
    <path class="cls-1" d="m154.11,181.32c-.93-1.93-1.85-3.88-2.78-5.81h-.16l-2.77,5.81h5.71Zm-9.04,3.75l5.79-11.92c.06-.11.15-.2.32-.2h.19c.17,0,.26.09.32.2l5.75,11.92c.11.23-.04.46-.33.46h-.76c-.17,0-.28-.11-.32-.2l-1.41-2.92h-6.76l-1.39,2.92c-.04.09-.15.2-.32.2h-.76c-.28,0-.44-.23-.32-.46"/>
    <path class="cls-1" d="m160.19,173.47c0-.17.15-.33.36-.33h.74c.19,0,.36.16.36.33v10.87h5.48c.21,0,.36.16.36.33v.52c0,.18-.15.34-.36.34h-6.58c-.21,0-.36-.16-.36-.34v-11.72Z"/>
    <path class="cls-1" d="m169.35,183.67c.09-.11.19-.23.28-.34.19-.23.4-.37.67-.16.13.11,1.52,1.35,3.22,1.35,1.54,0,2.55-.91,2.55-1.95,0-1.23-1.14-1.95-3.33-2.8-2.09-.85-3.35-1.65-3.35-3.66,0-1.21,1.03-3.16,4.05-3.16,1.86,0,3.25.9,3.25.9.12.06.34.27.12.6-.08.11-.15.23-.23.33-.17.25-.36.32-.67.16-.13-.07-1.33-.81-2.49-.81-2.02,0-2.63,1.2-2.63,1.95,0,1.19.97,1.88,2.57,2.5,2.57.97,4.23,1.88,4.23,3.93,0,1.84-1.89,3.19-4.11,3.19s-3.77-1.23-4.01-1.44c-.15-.12-.34-.26-.11-.6"/>
    <path class="cls-1" d="m193.12,181.32c-.93-1.93-1.85-3.88-2.78-5.81h-.15l-2.78,5.81h5.71Zm-9.04,3.75l5.78-11.92c.06-.11.15-.2.32-.2h.19c.17,0,.27.09.32.2l5.75,11.92c.11.23-.04.46-.33.46h-.76c-.17,0-.28-.11-.32-.2l-1.41-2.92h-6.76l-1.39,2.92c-.03.09-.15.2-.32.2h-.76c-.28,0-.44-.23-.32-.46"/>
    <path class="cls-1" d="m208.62,178.69c1.46,0,2.28-.98,2.28-2.21s-.82-2.12-2.28-2.12h-3.11v4.34h3.11Zm.32,5.65c1.39,0,2.4-.97,2.4-2.25s-1.24-2.18-2.72-2.18h-3.14v4.43h3.47Zm-4.85-10.88c0-.17.15-.33.36-.33h4.17c2.32,0,3.9,1.4,3.9,3.26,0,1.36-.97,2.35-1.86,2.83,1.01.39,2.28,1.26,2.28,2.89,0,1.98-1.69,3.42-4.15,3.42h-4.34c-.21,0-.36-.16-.36-.34v-11.73Z"/>
    <path class="cls-1" d="m216.65,173.47c0-.17.15-.33.36-.33h7.5c.21,0,.36.16.36.33v.51c0,.18-.15.34-.36.34h-6.4v4.32h5.46c.19,0,.37.16.37.34v.51c0,.2-.18.33-.37.33h-5.46v4.52h6.4c.21,0,.36.16.36.33v.52c0,.18-.15.34-.36.34h-7.5c-.21,0-.36-.16-.36-.34v-11.72Z"/>
    <path class="cls-1" d="m230.47,174.32h-3.31c-.21,0-.36-.16-.36-.34v-.52c0-.17.15-.33.36-.33h8.07c.21,0,.36.16.36.33v.52c0,.18-.15.34-.36.34h-3.32v10.87c0,.18-.17.34-.36.34h-.72c-.19,0-.36-.16-.36-.34v-10.87Z"/>
    <path class="cls-1" d="m240.69,174.32h-3.31c-.21,0-.37-.16-.37-.34v-.52c0-.17.16-.33.37-.33h8.07c.21,0,.36.16.36.33v.52c0,.18-.15.34-.36.34h-3.31v10.87c0,.18-.17.34-.36.34h-.72c-.19,0-.37-.16-.37-.34v-10.87Z"/>
    <path class="cls-1" d="m248.58,173.47c0-.17.15-.33.36-.33h7.5c.21,0,.36.16.36.33v.51c0,.18-.15.34-.36.34h-6.39v4.32h5.46c.19,0,.36.16.36.34v.51c0,.2-.17.33-.36.33h-5.46v4.52h6.39c.21,0,.36.16.36.33v.52c0,.18-.15.34-.36.34h-7.5c-.21,0-.36-.16-.36-.34v-11.72Z"/>
    <path class="cls-1" d="m265.71,179.51c1.47,0,2.74-1.13,2.74-2.59,0-1.35-1.27-2.5-2.74-2.5h-3.69v5.08h3.69Zm-5.19-6.04c0-.17.15-.33.36-.33h4.93c2.28,0,4.15,1.66,4.15,3.77,0,1.63-1.16,2.99-2.81,3.61l2.61,4.5c.13.23,0,.52-.33.52h-.97c-.17,0-.26-.09-.3-.16l-2.53-4.69h-3.64v4.52c0,.18-.17.34-.36.34h-.75c-.21,0-.36-.16-.36-.34v-11.73Z"/>
    <path class="cls-1" d="m278.66,173.47c0-.17.15-.33.36-.33h.74c.19,0,.36.16.36.33v10.87h5.48c.21,0,.36.16.36.33v.52c0,.18-.15.34-.36.34h-6.58c-.21,0-.36-.16-.36-.34v-11.72Z"/>
    <path class="cls-1" d="m288.67,173.47c0-.17.17-.33.36-.33h.76c.19,0,.37.16.37.33v11.72c0,.18-.17.34-.37.34h-.76c-.19,0-.36-.16-.36-.34v-11.72Z"/>
    <path class="cls-1" d="m294.71,173.47c0-.17.15-.33.36-.33h7.49c.21,0,.37.16.37.33v.51c0,.18-.16.34-.37.34h-6.39v4.85h5.46c.2,0,.36.16.36.34v.51c0,.18-.17.34-.36.34h-5.46v4.84c0,.18-.17.34-.36.34h-.74c-.21,0-.36-.16-.36-.34v-11.72Z"/>
    <path class="cls-1" d="m306.2,173.47c0-.17.15-.33.37-.33h7.49c.21,0,.36.16.36.33v.51c0,.18-.16.34-.36.34h-6.39v4.32h5.47c.18,0,.36.16.36.34v.51c0,.2-.18.33-.36.33h-5.47v4.52h6.39c.21,0,.36.16.36.33v.52c0,.18-.16.34-.36.34h-7.49c-.21,0-.37-.16-.37-.34v-11.72Z"/>
    <path class="cls-1" d="m32.69,143.12c3.85,0,7.19-3.2,7.19-7.29,0-3.8-3.35-7.04-7.19-7.04h-9.69v14.34h9.69Zm-13.64-17.04c0-.5.4-.95.95-.95h12.94c5.99,0,10.89,4.7,10.89,10.64,0,4.59-3.05,8.44-7.39,10.19l6.84,12.69c.35.65,0,1.45-.85,1.45h-2.55c-.45,0-.7-.25-.8-.45l-6.64-13.24h-9.54v12.74c0,.5-.45.95-.95.95h-1.95c-.55,0-.95-.45-.95-.95v-33.07Z"/>
    <path class="cls-1" d="m80.26,148.21c-2.45-5.44-4.85-10.94-7.29-16.38h-.4l-7.29,16.38h14.99Zm-23.73,10.59l15.19-33.62c.15-.3.4-.55.85-.55h.5c.45,0,.7.25.85.55l15.09,33.62c.3.65-.1,1.3-.85,1.3h-2c-.45,0-.75-.3-.85-.55l-3.7-8.24h-17.73l-3.65,8.24c-.1.25-.4.55-.85.55h-2c-.75,0-1.15-.65-.85-1.3"/>
    <path class="cls-1" d="m108.34,143.26l-12.04-16.68c-.4-.65,0-1.45.8-1.45h2.35c.35,0,.65.25.8.45l10.09,13.94,10.09-13.94c.15-.2.45-.45.8-.45h2.35c.8,0,1.2.8.8,1.45l-12.19,16.64v15.94c0,.5-.45.95-.95.95h-1.95c-.55,0-.95-.45-.95-.95v-15.89Z"/>
    <path class="cls-1" d="m136.52,154.85c.25-.3.5-.65.75-.95.5-.65,1.05-1.05,1.75-.45.35.3,4,3.8,8.44,3.8,4.05,0,6.7-2.55,6.7-5.5,0-3.45-3-5.5-8.74-7.89-5.49-2.4-8.79-4.64-8.79-10.34,0-3.39,2.7-8.89,10.64-8.89,4.89,0,8.54,2.55,8.54,2.55.3.15.9.75.3,1.7-.2.3-.4.65-.6.95-.45.7-.95.9-1.75.45-.35-.2-3.5-2.3-6.54-2.3-5.3,0-6.9,3.39-6.9,5.49,0,3.35,2.55,5.3,6.75,7.05,6.74,2.75,11.09,5.29,11.09,11.09,0,5.2-4.95,8.99-10.79,8.99s-9.89-3.45-10.55-4.05c-.4-.35-.9-.75-.3-1.7"/>
    <path class="cls-1" d="m179.58,128.48h-8.69c-.55,0-.95-.45-.95-.95v-1.45c0-.5.4-.95.95-.95h21.18c.55,0,.95.45.95.95v1.45c0,.5-.4.95-.95.95h-8.69v30.68c0,.5-.45.95-.95.95h-1.9c-.49,0-.94-.45-.94-.95v-30.68Z"/>
    <path class="cls-1" d="m207.76,126.08c0-.5.4-.95.95-.95h19.68c.55,0,.95.45.95.95v1.45c0,.5-.4.95-.95.95h-16.78v12.19h14.34c.5,0,.95.45.95.95v1.45c0,.55-.45.95-.95.95h-14.34v12.74h16.78c.55,0,.95.45.95.95v1.45c0,.5-.4.95-.95.95h-19.68c-.55,0-.95-.45-.95-.95v-33.07Z"/>
    <path class="cls-1" d="m257.88,156.65c8.19,0,14.14-5.84,14.14-14.09s-5.94-14.03-14.14-14.03h-7.5v28.12h7.5Zm-11.29-30.57c0-.5.4-.95.9-.95h11.19c9.64,0,17.54,7.85,17.54,17.43s-7.89,17.54-17.54,17.54h-11.19c-.5,0-.9-.45-.9-.95v-33.07Z"/>
    <path class="cls-1" d="m293.15,126.08c0-.5.4-.95.95-.95h19.68c.55,0,.95.45.95.95v1.45c0,.5-.4.95-.95.95h-16.79v12.19h14.34c.5,0,.95.45.95.95v1.45c0,.55-.45.95-.95.95h-14.34v12.74h16.79c.55,0,.95.45.95.95v1.45c0,.5-.4.95-.95.95h-19.68c-.55,0-.95-.45-.95-.95v-33.07Z"/>
    <path class="cls-1" d="m328.25,97.1c-3.62,0-8.51-1.61-10.15-4.92-.48-.97-.77-2.29-.27-3.92-1.09.2-2.38.23-3.88.01-4.84-.7-8.92-2.39-11.61-4.65-.46,2.39-1.92,6.73-6.58,8.9-.25.12-.55,0-.66-.24-.12-.25,0-.55.24-.66,4.62-2.15,5.81-6.8,6.11-8.81-1.36-1.38-2.23-2.93-2.49-4.57-.2-1.24-.09-1.89.34-2.17.16-.1.49-.23.95.07,1.08.72,2.62,3.86,2.29,5.81,0,.03,0,.22-.04.52,2.5,2.33,6.61,4.1,11.58,4.82,1.79.26,3.15.14,4.19-.15.53-1.07,1.39-2.24,2.72-3.52.58-.56,1.02-.37,1.18-.26.41.27.48.89.19,1.65-.44,1.15-1.53,2.32-3.36,2.96-.57,1.36-.58,2.63-.01,3.78,1.54,3.1,7,4.84,10.65,4.27,1.58-.25,2.51-1.18,2.76-2.76.04-.25.06-.5.07-.76-1.22.13-2.21-.93-2.56-2.78-.23-1.21-.19-3.1.87-3.32.32-.07.65.09.98.46.62.71,1.33,2.36,1.6,4.12.27-.27.51-.63.72-1.07.72-1.54.95-4.11-.06-5.85-1.97-3.39-5.06-10.27-5.65-11.61-.26-.59-.53-1.32-.8-2.09-.69-1.93-1.64-4.58-2.74-4.73-.23-.03-.52-.06-.85-.07-2.21,2.94-5.36,3.67-7.02,3.15-1.01-.31-1.55-1.06-1.45-2,.04-.35.23-.67.57-.94,1.32-1.04,5.06-1.29,7.39-1.23.17-.25.33-.52.48-.81,1.72-3.2-7.07-13.99-9.4-15.46-.39-.25-.78-.52-1.15-.82-.44.73-1.04,1.28-1.74,1.31-1.44.09-2.32-2.75-3.75-9.12-.3-1.34-.56-2.49-.77-3.17-.2-.64-.5-1.91-.88-3.53-.83-3.51-3.02-12.82-4.24-13.15-1.57.22-1.76,7.34-1.02,13.82.27,2.07.53,3.99.78,5.53.97,2.13,1.56,3.7,1.44,4.11-.05.15-.2.32-.35.38-.35.12-.61.03-.77-.06-.5-.31-.81-1.1-1.29-4.13-2.38-5.11-7.05-14-8.99-16.58-.85-1.12-1.62-1.66-2.08-1.46-.51.23-.79,1.37-.59,2.34.09.42.15,1.02.24,1.79.35,3.17,1,9.08,4.67,16.61,1.73,3.55,3.31,5.63,4.49,6.75.88-.93,1.52-1.35,2.07-1.27.21.03.59.16.79.7.73,1.93-.16,2.49-.45,2.61-.56.25-1.36.05-2.32-.66-1.1,1.33-2.5,3.24-3.81,5.02-5.81,7.9-14.62,19.83-22.55,19.35-.28-.02-.49-.25-.47-.53.02-.27.23-.49.53-.47,7.36.45,16-11.22,21.68-18.95,1.64-2.23,2.88-3.9,3.86-5.06-1.39-1.32-3.03-3.61-4.72-7.07-3.75-7.68-4.41-13.7-4.77-16.94-.08-.73-.14-1.31-.22-1.69-.27-1.32.08-2.97,1.16-3.45.67-.3,1.78-.24,3.3,1.77,1.37,1.82,5.06,8.48,7.71,13.84-.1-.71-.2-1.5-.32-2.36,0-.04-.4-3.56-.42-7.09-.02-5.13.71-7.62,2.32-7.84,1.68-.23,3.06,4.3,5.33,13.91.38,1.6.67,2.86.86,3.46.22.72.49,1.89.79,3.25.55,2.44,1.83,8.17,2.73,8.34.33-.02.71-.43,1.01-.99-.95-.92-1.59-1.9-1.39-2.67.08-.31.37-.83,1.4-.88.85-.04,1.44.56,1.49,1.57.02.51-.08,1.13-.29,1.72.36.3.77.6,1.24.9,1.98,1.25,11.96,12.65,9.75,16.78-.07.13-.14.26-.22.39.13.01.25.02.35.04,1.7.23,2.63,2.85,3.54,5.38.27.75.52,1.46.77,2.02,1.64,3.69,4.1,8.92,5.61,11.52,1.19,2.05.95,4.96.1,6.77-.4.84-.92,1.47-1.52,1.83.02.79-.08,1.56-.33,2.25-.53,1.44-1.69,2.34-3.34,2.6-.48.07-1,.11-1.55.11Zm2.69-9.68c-.19.37-.3,1.9.27,3.13.31.68.71,1,1.21.93-.21-1.86-1.03-3.65-1.48-4.06Zm-9.48-2.87c-.64.64-1.17,1.26-1.6,1.88.45-.29.78-.6,1.01-.87.32-.38.5-.73.6-1.01Zm-21.59-7.45c0,.19,0,.49.08.98.19,1.2.75,2.35,1.64,3.41.06-1.62-1.11-3.77-1.72-4.39Zm22.82-11.6c-2.2.02-5.07.31-6,1.03-.08.06-.18.16-.19.26-.05.45.2.77.75.93,1.3.4,3.63-.22,5.44-2.22Zm-23.4-16c.63.46,1.08.58,1.27.5.15-.06.22-.53-.08-1.34-.03-.07-.05-.09-.05-.09-.21,0-.62.36-1.14.93Zm13.45-5.29s-.04,0-.05,0c-.34.02-.47.1-.48.14-.05.2.21.73.82,1.39.08-.31.12-.62.11-.9-.03-.57-.25-.62-.4-.62Z"/>
    <path class="cls-1" d="m248.51,76.57c-.37,0-.74-.15-1.02-.42-.27-.27-.6-.79-.62-1.77-.7-.02-1.56-.02-2.55-.02h-1.42c-2.85,0-3.42-.28-3.53-.85-.14-.75.88-1.17,3.02-1.97.38-.14.75-.28,1.04-.4.92-.38,1.47-1.83,2.01-3.23.41-1.06.82-2.14,1.43-2.92-.02-.02-.04-.03-.06-.05-.46-.32-1.05-.17-1.74.44-.45.39-1.12,1.29-1.83,2.25-2.16,2.9-4.86,6.5-7.23,5.08-1.41-.84-3.7-2.43-3.29-3.6.32-.91,1.82-.83,3.09-.65,1.4.19,2.5-.05,3.26-.73.67-.59,1-1.43,1.16-2.17-3.69-.64-8.5-4.43-10.06-6.44-.61-.79-.79-1.35-.56-1.78.51-.96,2.24-.33,5.7.94,3.12,1.14,7.4,2.71,10.88,2.88,8.05.39,13.41-.84,16.61-1.57.07-.02.13-.03.2-.04-.47-.5-.98-1.1-1.54-1.85-5.22-6.9-10.91-13.63-18.11-13.63-.05,0-.1,0-.15,0-3.08.04-5.01,1.34-6.11,2.8-.09,1.29.11,2.3.26,3.05.16.78.27,1.34-.07,1.76-.31.38-.82.38-.99.38-.85,0-1.41-.76-1.42-1.95,0-1.11.4-2.43,1.25-3.63.12-1.2.48-2.6,1.28-4.19,1.81-3.61.55-7.83-1.38-10.22-1.16-1.44-2.52-2.16-3.56-1.9-.73.19-1.25.48-1.61.79.02.01.04.03.05.04.61.52,1.17,1.41.96,2.15-.12.42-.46.7-.95.78-.82.13-1.53-.38-1.7-1.23-.09-.43-.04-.89.14-1.34-.14,0-.27.02-.4.08-.28.13-.36.66-.46,1.5-.23,1.86-.62,4.97-5.27,7.16-.41.19-.67.39-.82.53.26.02.75-.01,1.66-.25,1.19-.31,2.7-.86,4.16-1.38,3.75-1.35,5.11-1.77,5.63-1.09.37.48-.04,1.09-.18,1.29-.26.38-.78.69-1.5,1.12-2.53,1.52-7.23,4.34-3.97,13.41.09.26-.04.55-.3.64-.26.09-.55-.04-.64-.3-3.54-9.85,1.82-13.06,4.4-14.61.54-.32,1.05-.63,1.19-.83,0-.01.02-.03.03-.04-.81.08-2.8.8-4.31,1.35-1.48.54-3.01,1.09-4.25,1.41-1.13.3-2.68.58-3-.31-.22-.6.35-1.31,1.48-1.84,4.15-1.95,4.47-4.51,4.7-6.37.13-1.03.24-1.91,1.03-2.28.44-.2.92-.22,1.41-.07.5-.54,1.25-.99,2.27-1.26,1.44-.38,3.16.46,4.59,2.23,2.13,2.63,3.5,7.29,1.5,11.29-.43.85-.72,1.64-.91,2.36,1.36-1.16,3.28-1.99,5.8-2.03,7.7-.08,13.67,6.87,19.07,14.03.74.98,1.36,1.68,1.89,2.19.9-.19,1.58-.29,2.1-.23.65.07,1.15.55,1.24,1.18.08.56-.2,1.07-.69,1.28-.48.2-1.4.21-2.93-1.14-.26.06-.53.12-.83.19-3.25.74-8.69,1.98-16.89,1.59-3.63-.17-7.99-1.77-11.17-2.94-1.72-.63-3.85-1.4-4.45-1.35.14.36,1.09,1.61,3.18,3.24,1.92,1.5,4.57,3.09,6.67,3.47.01-.21.01-.37.01-.49,0-.53.33-1.12,1.31-1.21.92-.09,2.3.32,2.44,1.17.16,1.02-1.42,1.39-1.94,1.51-.3.07-.62.1-.95.1-.19.93-.6,2.03-1.49,2.82-.99.88-2.36,1.21-4.06.98-1.73-.24-2.02.02-2.03.03.03.17.76,1.1,2.88,2.37,1.6.96,4.2-2.52,5.92-4.82.78-1.04,1.45-1.94,1.97-2.4,1.41-1.24,2.46-.86,2.96-.52.08.05.15.11.22.18.06-.04.11-.07.17-.11.9-.52,2.52-.42,4.77-.27,3.37.22,7.98.52,11.3-1.59.23-.15.54-.08.69.15.15.23.08.54-.15.69-3.59,2.28-8.39,1.97-11.9,1.74-1.83-.12-3.56-.23-4.2.14-.02.01-.04.02-.06.03.89,1.6,1.03,4.41.18,6.76-.22.61-.37,1.15-.45,1.6.79.09,1.29.27,1.61.61.28.29.4.68.37,1.19-.03.55-.38,1.02-.9,1.22-.17.07-.35.1-.53.1Zm-.64-2.13c.02.49.14.82.32.99.19.19.4.14.49.11.06-.02.25-.12.27-.35.02-.32-.07-.41-.1-.45-.14-.15-.48-.24-.97-.3Zm-2.49-1.08c.6,0,1.12,0,1.57.02.09-.53.25-1.15.51-1.87.75-2.07.62-4.36.04-5.66-.43.65-.78,1.55-1.11,2.42-.61,1.6-1.25,3.26-2.56,3.8-.31.13-.68.27-1.07.41-.54.2-1.41.53-1.95.79.39.05,1.03.09,2.11.09h1.42c.38,0,.73,0,1.06,0Zm-3.45-9.5c-.13,0-.26.01-.37.05-.18.05-.18.11-.18.16,0,.14,0,.34-.02.59.21,0,.41-.03.59-.07.7-.16,1-.32,1.12-.41-.2-.15-.7-.31-1.14-.31Zm23.2-3.75c.88.62,1.27.48,1.27.48.1-.04.09-.16.09-.22,0-.05-.06-.29-.36-.33-.26-.03-.59,0-1,.07Zm-29-11.45c-.18.54-.26,1.03-.26,1.43,0,.35.09.95.42.95.19,0,.24-.03.24-.03,0-.08-.09-.54-.16-.91-.08-.39-.18-.87-.24-1.45Zm-5.87-16.89c-.1.27-.12.52-.08.72.04.19.17.51.57.45.04,0,.13-.02.15-.06.05-.19-.17-.7-.64-1.11Z"/>
    <path class="cls-1" d="m171.16,101.15c-.23,0-.44-.17-.49-.41-.6-3.1-1.07-5.72-1.44-7.96-.28,1.58-.57,2.8-.8,3.26-.18.34-.41.51-.68.51-2.08-.02-3.7-16.34-3.71-16.5-.52-5.73-3.05-12.35-3.07-12.42-.01-.04-.02-.08-.03-.11,0-.03-.44-2.96-3.59-4.91-3.8-2.35-4.35-9.5-3.79-12.63.53-2.95-.29-6.86-2.06-8.06.86,1.3,1.41,2.56,1.28,3.38-.05.31-.29,1.05-1.38,1.08-1.11.03-2.01-.53-2.5-1.54-.58-1.19-.46-2.73.26-3.6.1-.11.2-.21.31-.3-1.17-1.39-2.53-2.65-3.47-2.99-.06-.02-.18-.06-.35.05,1.59,2.11,2.27,6.55,1.7,8.86-.43,1.74-1.41,1.97-1.97,1.94-.51-.02-1.22-.29-1.7-1.49-.96-2.38-.55-7.14.65-9.26-.07-.05-.14-.09-.22-.13-1.68-.81-7.29-5.29-10.16-8.51-.17-.06-.35-.14-.54-.22-3.39-1.51-8.75-6.32-8.06-8.38.06-.17.13-.32.23-.46-1.53-1.19-2.76-2.54-2.65-3.47.01-.09.03-.18.05-.27-2.35-1.13-4.77-2.75-5.48-3.92-.37-.61-.25-1.03-.08-1.27.13-.19.32-.35.58-.47-1.98-1.41-4.2-3.33-3.53-4.45.18-.3.51-.5.95-.63-.96-.81-1.71-1.55-2.02-2.05-.09-.15-.37-.59-.14-1,.58-1.06,2.24-.43,4.35.36.95.36,1.92.73,2.83.96l1.55.39c4.68,1.16,15.64,3.88,19.1,5.19,3.11,1.17,10.91,10.78,15.1,15.95,1.11,1.37,2.06,2.54,2.24,2.7.58.45,3.58,4.93,2.85,6.63-.14.31-.51.82-1.5.66-.52-.08-1.16-.2-1.87-.32.38.2.83.44,1.31.7,1.59.86,3.78,2.04,4.62,2.24.21.05.48.1.77.16.82.16,1.83.37,2.7.71.15-.14.3-.27.46-.42,1.18-1.05,2.52-2.25,3.02-3.82,2.08-9.61,7.25-14.81,9.45-17.03l.36-.36c1.11-1.13,4.97-2.86,9.06-4.68,2.98-1.33,6.07-2.7,7.62-3.68,1.47-.92,2.87-2.81,4.22-4.64,1.9-2.57,3.7-5,5.64-4.41.46.14.76.47.87.94.18.83-.34,2.16-1.19,3.59.31.06.6.16.88.31.55.31.84.81.84,1.46-.01,1.42-1.58,3.56-3.55,5.62.34.16.66.38.95.65.59.57.78,1.29.54,2.08-.46,1.51-2.47,3.16-4.78,4.56.29.17.52.39.69.64.21.31.38.84,0,1.58-.49.97-1.88,2.11-3.53,3.15.14.12.27.26.39.41.63.8.82,2.25-1.82,4.59-.31.27-.72.6-1.18.94.16.13.3.29.42.47.61.88.17,2.06-1.32,3.49-.73.71-2.02,1.67-3.43,2.6.01.09.01.17,0,.27-.1,1.08-1.48,2.61-7.91,6.58-.39.24-.75.45-1.11.63-.06.31-.21.68-.52,1.11-.35.49-.88,1-1.47,1.43.09.18.16.38.18.6.11,1.15-.91,2.69-3.47,3.57-.48.16-.93.26-1.36.28,1.86,8.53.88,13.51-.2,15.28-.34.56-.72.88-1.13.95-.91.15-1.84-.03-2.92-.24-.91-.18-1.93-.38-3.2-.45-.16,0-.27,0-.35,0,.19.3.67.79.98,1.11.84.87,1.36,1.42,1.34,1.98,1.7,16.71,2.77,20.83,3.26,21.79.36-.85.71-3.38.89-4.68.11-.77.21-1.47.3-1.96.69-3.68.91-15.07.92-15.18,0-.27.23-.49.5-.49h0c.28,0,.5.23.49.51,0,.47-.23,11.58-.93,15.35-.09.47-.18,1.15-.29,1.91-.6,4.36-.94,5.73-1.86,5.73,0,0-.01,0-.02,0-.81-.01-1.93-.04-4.26-22.94-.05-.27-.68-.93-1.06-1.32-.88-.9-1.57-1.62-1.27-2.28.27-.59,1.1-.54,1.41-.53,1.33.07,2.4.28,3.34.46,1.03.2,1.84.36,2.56.24.04,0,.22-.11.45-.49.94-1.55,1.89-6.42,0-14.85-.22-.06-.42-.14-.62-.24-1.56-.82-2.13-2.88-2.54-4.39l-.08-.3c-.41-1.46.09-2.31.77-2.52.62-.18,1.47.19,1.88,1.44.58,1.82,1.06,3.53,1.43,5.12.38,0,.79-.07,1.26-.23,2.17-.74,2.86-1.92,2.8-2.53,0-.06-.02-.11-.04-.16-.61.33-1.22.52-1.68.47-.71-.08-1.13-.3-1.29-.66-.1-.24-.07-.5.1-.72.35-.46,1.26-.67,2.33-.52.24.03.46.1.65.19.49-.34.97-.76,1.31-1.21-1.85.69-3.07.53-3.67.02-.41-.35-.54-.87-.33-1.36.28-.67,1.29-1.4,3.19-1.24,1.04.08,1.73.39,2.05.9.24-.13.5-.28.76-.44,3.86-2.38,6.23-4.1,7.08-5.14-2.33,1.4-4.67,2.48-5.29,2.01-.21-.16-.31-.4-.27-.67.15-.99,2.78-2.43,4.15-2.92,1.07-.38,1.8-.42,2.25-.11,1.88-1.21,3.66-2.6,4.32-3.77.34-.61.18-.84.13-.91-.13-.18-.28-.32-.47-.43-2.25,1.52-5.22,3.09-5.96,2.34-.21-.21-.27-.52-.17-.83.35-1.04,2.66-2.42,4.49-2.68.57-.08,1.08-.06,1.52.06,1.31-.92,2.51-1.97,3.09-2.97.53-.91.22-1.31.12-1.43-.15-.2-.33-.35-.53-.47-2.42,1.39-5.09,2.49-6.22,2.55-.43.02-.73-.09-.9-.34-.21-.32-.35-1,1.04-1.99,1.55-1.11,4.17-2.02,6.04-1.34,1.48-.87,2.8-1.85,3.43-2.73.28-.39.36-.68.23-.87-.17-.26-.5-.45-.95-.57-2.37,1.29-4.85,2.27-6.2,2.51-.56.1-1.24.16-1.58-.28-.2-.27-.24-.6-.09-.91.5-1.12,3.59-2.21,5.92-2.41.67-.06,1.26-.04,1.77.04,2.04-1.14,3.96-2.5,4.8-3.81.6-.93.32-1.39.02-1.68-.3-.29-.65-.49-1.03-.6-2.29,2.26-4.88,4.29-6.16,4.97-.51.27-1.03.49-1.42.23-.12-.08-.39-.32-.33-.81.15-1.25,2.79-4.19,5.51-5.16.74-.26,1.43-.37,2.06-.31,1.79-1.8,3.31-3.68,3.61-4.99.14-.6-.06-.81-.28-.93-.31-.17-.65-.24-.99-.24-1.46,2.21-3.47,4.5-4.7,5.6-.95.84-1.54,1.14-2,.98-.29-.1-.48-.34-.52-.66-.17-1.26,2.1-4.31,4.34-5.84.82-.56,1.59-.9,2.32-1.02.78-1.21,1.33-2.34,1.39-3.11.03-.4-.1-.44-.19-.47-1.28-.38-2.94,1.87-4.55,4.05-1.41,1.9-2.86,3.87-4.5,4.89-1.62,1.02-4.6,2.34-7.75,3.75-3.65,1.62-7.78,3.47-8.76,4.46l-.36.37c-2.14,2.16-7.17,7.21-9.2,16.58-.6,1.88-2.04,3.17-3.32,4.31-.06.05-.12.1-.17.16.62.41,1.04.97,1.04,1.73,0,.79-.43,1.49-1.19,1.87-.74.37-1.59.35-2.12-.05-.26-.2-.67-.66-.5-1.54.12-.62.5-1.17,1.01-1.72-.7-.23-1.48-.38-2.09-.51-.31-.06-.58-.12-.81-.17-.97-.23-3.04-1.35-4.86-2.33-.96-.52-1.86-1-2.25-1.16-.26-.11-.52-.2-.77-.26-.15.25-.36.53-.66.82-1.31,1.29-2.19,1.17-2.59.98-.46-.21-.73-.69-.69-1.22.04-.63.49-1.16,1.14-1.36.19-.06.38-.11.55-.15-.65-.11-1.3-.21-1.92-.31-.35.16-.67.31-.96.45-1.39.66-2.39,1.14-3.63.85-.9-.21-1.49-.85-1.4-1.52.05-.37.38-1.22,2.49-1.17.84.02,2.03.16,3.37.35,1.45-.6,3.62-.48,4.35.59.03.04.06.09.09.15.45.08.88.16,1.31.23,1.08.19,2.05.37,2.79.49.25.04.39.02.43-.07.41-.95-1.97-5-2.55-5.44-.21-.16-.79-.86-2.4-2.86-3.84-4.73-11.82-14.56-14.68-15.64-3.41-1.28-14.33-4-18.99-5.15l-1.55-.39c-.97-.24-1.97-.62-2.94-.99-.99-.37-2.59-.98-3.03-.86.24.46,1.27,1.43,2.58,2.45h.03c2,0,4.7.73,6.11,1.5,1.7.93,1.56,1.85,1.33,2.31-.11.22-.4.6-1.08.63-1.48.07-4.42-1.68-6.73-3.44-.61.02-1.03.12-1.14.31-.02.51,1.78,2.12,4,3.63.41-.03.88-.02,1.41.02,2.11.17,5.51,1.03,6.12,2.36.18.38.13.78-.11,1.12-1.17,1.62-6.1-1.43-7.59-2.4-.03-.02-.06-.04-.09-.06-.51.07-.75.21-.81.3-.01.45,2.01,2.19,5.1,3.7.04.02.08.04.12.06.25-.26.59-.47,1-.61,1.22-.43,2.81-.18,3.54.55.43.42.56.96.37,1.53-.08.23-.31.64-1.01.71-.77.09-2.05-.28-3.46-.88.01.42.93,1.51,2.46,2.67.22-.1.47-.17.74-.22,1.59-.24,3.81.51,4.58,1.56.32.44.38.92.17,1.35-.2.4-.7.8-1.97.42-.91-.27-2.25-.99-3.51-1.87-.04.06-.07.12-.09.19-.31.92,2.96,4.56,6.3,6.52-.27-.46-.41-.85-.36-1.12.11-.64.6-1.12,1.36-1.3,1.2-.29,3.05.14,3.89,1.25.52.69.55,1.51.08,2.33-.25.44-.79.98-1.89.98,2.71,2.73,6.95,6.31,8.88,7.24.14.07.27.15.4.25.42-.35.91-.44,1.39-.27,1.18.43,2.83,1.92,4.16,3.57.21,0,.42.02.64.09,3,.85,4,6.1,3.39,9.5-.55,3.08.09,9.6,3.33,11.6,3.34,2.08,3.97,5.08,4.05,5.57.26.68,2.6,6.97,3.12,12.63.54,6.01,1.87,13.44,2.67,15.27.34-.96.71-3.21,1.02-5.67-1.01-6.88-.71-8.75-.17-9.53.2-.29.46-.46.79-.51.24-.04.47.06.62.27.61.84.3,5.56-.24,9.73.62,4.22,1.5,8.78,1.93,11.04.05.27-.12.53-.4.59-.03,0-.06,0-.1,0Zm-1.91-20.32c-.26.7-.25,2.23-.08,4.16.13-1.82.18-3.37.08-4.16Zm3.79-35.8s-.02,0-.03,0c-.14.04-.32.48-.09,1.29l.09.31c.38,1.35.84,3.03,1.92,3.7-.35-1.41-.77-2.91-1.28-4.5-.19-.58-.47-.8-.61-.8Zm-28.01-6.2c-.91,1.93-1.21,6.15-.43,8.1.15.38.42.85.81.86.45,0,.76-.38.96-1.19.52-2.09-.15-5.94-1.34-7.77Zm5.06,2.88c-.06.04-.12.1-.17.16-.46.55-.52,1.71-.13,2.52.22.46.68,1.01,1.57.98.38-.01.41-.14.42-.24.11-.66-.65-2.04-1.69-3.42Zm30.07,1.96c-1.08,0-1.64.37-1.76.65-.03.08-.03.14.06.22.37.31,1.51.36,3.35-.48-.19-.18-.63-.32-1.22-.36-.15-.01-.29-.02-.43-.02Zm-12.67-3.36c-.53.52-.94,1.02-1.03,1.49-.05.27,0,.45.12.56.23.17.69.15,1.07-.04.24-.12.65-.41.64-.97,0-.43-.33-.77-.81-1.04Zm22.38-3.05s-.09.03-.14.04c-1.12.36-2.31,1.04-3.05,1.57.79-.33,1.95-.9,3.19-1.62Zm-35.32-1.9c-.39.03-.83.11-1.35.27-.39.12-.43.39-.44.47,0,.04,0,.19.11.25.17.08.68,0,1.48-.78.06-.05.13-.13.2-.21Zm-6.69-1.53c-.98,0-1.29.24-1.31.3,0,.07.2.31.64.41.78.19,1.52-.1,2.53-.58-.66-.08-1.24-.13-1.71-.14-.05,0-.11,0-.16,0Zm45.94-2.78s-.05,0-.08.01c-1.39.25-2.71,1.09-3.26,1.63.7-.22,1.99-.83,3.34-1.64Zm-59.32-2.5c.83.28,1.81.43,2.2-.25.26-.46.26-.86-.01-1.23-.57-.75-2-1.09-2.85-.88-.36.09-.57.26-.61.49,0,.31.49.99,1.27,1.86Zm61.97-3.67c-.47,0-.92.08-1.25.16-1.63.38-2.93,1.26-3.36,1.75.81-.13,2.74-.89,4.68-1.9-.02,0-.04,0-.06,0Zm-69.02-4.42c.21.13.42.27.64.4,1.79,1.07,2.74,1.19,2.89,1.08.01-.03.05-.11-.08-.3-.47-.65-2.18-1.3-3.45-1.18Zm66.26,1.11c.56.06,2.59-.64,4.84-1.72-.11.01-.23.03-.35.04-2.24.31-4.14,1.22-4.49,1.67Zm9.08-8.78c-.34.07-.69.19-1.06.36-2.12.95-3.86,2.95-4.3,3.84.96-.47,3.22-2.2,5.37-4.2Zm-78.27,3.4c1.85.77,2.79.81,2.94.67.06-.19.02-.34-.13-.49-.42-.42-1.59-.64-2.51-.32-.11.04-.21.08-.3.13Zm-3.55-4.51c1.16.69,2.34,1.29,3.38,1.65,1.17.41,1.56.27,1.6.22.04-.06.04-.08.02-.12-.28-.61-2.6-1.51-4.99-1.75Zm83.77-5.69c-.33.16-.64.36-.92.56-2.02,1.43-3.56,3.76-3.78,4.59.78-.43,2.97-2.77,4.7-5.15Zm-86.4.83c1.68,1.17,3.48,2.18,4.59,2.31.2.03.42.02.46-.07.14-.28-.38-.69-.92-.98-1.17-.64-2.75-1.06-4.14-1.26Z"/>
    <path class="cls-1" d="m115.38,100.72c-.22,0-.42-.15-.48-.37-.29-1.11-.32-2.15-.14-3.12-.89.29-1.84.58-2.85.86-11.59,3.22-16.09-7.1-17.49-11.68-.71-2.34-2.44-15.01-1.13-16.14,1.54-1.32,7.64,4.7,7.7,4.77.02.02.67.71,1.39,1.63,2-3.19,5.75-4.06,9.09-4.83.8-.18,1.59-.37,2.32-.57-1.16-.23-1.91-.58-2.38-1.14-.67-.8-.65-1.92-.53-2.91.51-4.52,1.47-6.81,2.85-6.81h.02c1.2.02,2.89,2.94,3.67,4.78.6,1.41,1.45,3.95.37,5.11-.12.13-.25.26-.39.37.21.01.42.03.64.04,2.47.15,4.2,1.9,5.13,3.74,1.43.5,3.08,2.1,3.65,3.31.47,1.01.7,2.3.88,3.34.02.14.05.29.08.44,3.66-7.05,5.09-8.04,5.85-8.17.32-.05.62.04.84.27.57.56-.96,3.15-2.54,5.46,2.7-2.24,6.11-4.77,7.09-4.36.12.05.52.27.42.87-.2,1.28-2.84,3.26-7.09,6.02,3.78-.51,9.78-.49,10.11-.49.28,0,.5.23.5.5,0,.28-.23.5-.5.5-.1.05-.21,0-.32,0-2.99,0-10.09.17-11.87.97-.04.02-.09.04-.14.06.21.2.35.41.44.59.43.83.28,1.89-.39,2.7-.57.68-1.61,1.26-2.95,1.07-.26,2.38-2.32,6.13-11.36,9.35-.28,1-.32,2.08,0,3.25.07.27-.09.54-.36.61-.04.01-.09.02-.13.02Zm-21.43-29.67c-.53,1.35.46,11.9,1.42,15.06,1.31,4.3,5.53,13.99,16.27,11.01,1.25-.35,2.39-.7,3.44-1.06,1.22-3.39,4.79-5.82,6.98-7.32.44-.3.91-.62,1.24-.88-.35.05-.8.15-1.32.28-2.08,1.37-15.26,8.98-16.6,7.03-.5-.73.56-1.47.9-1.71,1.78-1.23,10.39-4.97,15.17-6.18.14-.09.27-.18.38-.26-1.43,0-4.18.35-7.01.82-.54.63-1.31,1.2-2.37,1.64-2.4.99-6.26,1.87-7.26.94-.26-.24-.34-.58-.22-.93.33-.99,5.45-1.96,9.3-2.55.49-.69.67-1.44.63-2.16-2.42.5-4.03.38-4.79-.36-.44-.43-.57-1.02-.38-1.68.27-.94,1.16-1.85,1.99-2.03,1.65-.36,3.35.88,3.97,2.87.61-.15,1.28-.35,2.04-.59,3.22-1.03,5.56-1,7.05-.51.49-.1,1.06-.18,1.69-.23.14-.01.28-.02.42-.03-.06-.26-.12-.59-.18-.98-.17-.98-.38-2.19-.8-3.08-.35-.74-1.27-1.72-2.18-2.33.33,1.13.44,2.45-.18,3.06-.54.51-1.3.43-1.94-.23-.91-.92-1.54-2.86-.49-3.92.18-.18.45-.37.83-.44-.84-1.35-2.18-2.51-3.98-2.62-.75-.05-1.42-.09-2.03-.15-1.22.56-2.71.9-4.26,1.26-3.41.79-6.94,1.6-8.66,4.72.71.99,1.33,2.07,1.29,2.76-.02.34-.17.54-.3.65-.49.42-1.38.54-2.03.04-.46-.36-1.08-1.27-.12-3.36-.49-.64-1.04-1.31-1.6-1.89-1.63-1.71-5.4-4.68-6.31-4.68h0Zm29.83,15.87c.42,0,.71.08.83.25.1.15.14.33.11.52-.09.51-.67.92-2.1,1.89-2.02,1.38-4.94,3.37-6.27,6.03,8.56-3.21,9.94-6.74,9.91-8.72,0-.16.07-.31.2-.41.13-.1.29-.12.45-.08.99.31,1.93.08,2.51-.62.41-.5.52-1.12.27-1.59-.38-.73-1.52-1.07-3.12-.93-.13.01-.25.02-.37.04.02.02.03.03.05.04.47.48.64,1.04.46,1.55-.17.51-.66.86-1.34.95-1.15.16-2.36-.21-2.86-.88-.26-.35-.32-.76-.15-1.14.11-.24.3-.46.59-.65-1.24-.06-2.86.14-4.9.79-.77.25-1.49.45-2.16.62.06.71-.04,1.47-.36,2.2.52-.08,1-.14,1.42-.2,5.93-.8,6.17-.44,6.36-.15.12.17.13.34.06.51.15-.01.29-.02.42-.02Zm-6.02,2.59c-4.52,1.62-10.03,4-11.28,5.05.87-.11,3.23-.88,8.06-3.34,1.17-.6,2.25-1.18,3.22-1.71Zm-11.68.29c.8.18,3.38-.14,5.99-1.22.27-.11.51-.23.74-.36-3.09.57-5.89,1.21-6.73,1.57Zm18.65-6.27c-1.28.3-1.46.67-1.47.7,0,.02-.02.05.04.13.22.29,1.01.62,1.92.49.28-.04.49-.15.54-.29.04-.13-.04-.33-.23-.53-.19-.19-.45-.37-.8-.51Zm-12.44-1.86c-.12,0-.24.01-.36.04-.41.09-1.06.7-1.24,1.33-.13.45.06.63.12.69.21.21,1.04.69,3.91.1-.38-1.13-1.34-2.15-2.43-2.15Zm26.03-5.92c-1.51.62-5.94,4.08-8.05,6,.18-.12.39-.25.63-.41,1.68-1.08,6.53-4.18,7.42-5.6Zm-4.77-1.31c-.47.32-1.8,1.65-4.7,7.18,1.51-2.07,4.14-5.87,4.7-7.18Zm-30.99,4.14c-.31.9-.2,1.41.05,1.61.24.19.62.12.77,0,.03-.21-.3-.83-.82-1.6Zm19.75-3.3c-.26,0-.39.1-.47.18-.53.53-.17,1.85.49,2.52.17.17.4.34.53.21.17-.17.29-1.09-.23-2.49-.05-.13-.1-.26-.16-.4-.06,0-.11-.01-.16-.01Zm-8.59-13.88c-.46,0-1.36,1.57-1.84,5.93-.12,1.11-.03,1.76.3,2.16.48.57,1.63.86,3.6,1.05.51-.26.95-.56,1.29-.92.36-.39.33-1.41-.08-2.73-.83-2.69-2.73-5.36-3.27-5.48h0Z"/>
    <path class="cls-1" d="m76.27,76.13c-.35,0-.68-.07-1.01-.21-2.26-.95-2.99-4.98-3.02-5.16-.05-.27.13-.53.4-.58.27-.05.53.13.58.4.18,1.02.97,3.79,2.43,4.41.61.26,1.29.12,2.09-.42,1.43-.97.92-2.91-.04-4.4-.28-.44-.59-.83-.9-1.16-.26.24-.54.42-.84.51-1.11.36-2.65.11-3.05-.76-.17-.36-.26-1.07.96-1.82.79-.48,1.84-.13,2.83.63.17-.26.33-.56.48-.89-.87-1.67-.84-4.07-.51-5.76.27-1.38,1.11-1.89,1.83-1.79.7.1,1.35.79,1.25,1.92,0,.05-.42,3.11-1.44,5.56.01.02.03.04.04.06.47.62,1.1.96,1.94,1.03.88.07,1.6-.33,2.1-1.22,1.02-1.79.82-4.77.16-5.69-1.3-1.81-.55-3.9.39-6.54l.22-.61c.99-2.82-1.41-4.72-3.54-6.39-.15-.12-.29-.23-.43-.34-.13.45-.01.78.55,1.24,2.4,1.98,2.77,4.74,2.07,6.59-.61,1.61-1.95,2.6-3.52,2.53-1.07-.04-1.56-.58-1.79-1.03-.74.82-2.18,1.59-4.93,1.19-5.02-.73-5.86-3.41-5.99-4.53-.2-1.73.77-3.46,2.24-4.04h0s1.79-1.15,2.49-2.77c-.19.16-.39.28-.57.35-.42.16-.83.1-1.12-.16-.39-.35-.52-.97-.34-1.71.4-1.65,1.31-2.11,1.97-1.98.3.05.6.22.83.52.35-.82.69-1.85,1.01-3.12-.75.15-1.35.3-1.73.47-.19.09-.44.21-.72.36-.89.46-2.08,1.06-3.28,1.39-1.03,2.24-2.4,4.19-3.77,5.49-2.1,2-4.39,5.49-4.54,9.3-.05,1.25.11,2.82.27,4.34.21,2.08.41,4.05.09,5.19-.09.31-.24.75-.42,1.27-.62,1.79-1.92,5.52-1.15,6.7.08.13.24.3.63.33.8.06,1.54-.21,2.19-.82,1.21-1.11,1.86-3.09,1.87-4.4,0-1.7.93-3.34,1.6-4.54.22-.4.42-.75.56-1.06.25-.56.13-1.77-.24-2.49-.15-.29-.28-.37-.31-.38-.26-.05-.46-.3-.42-.57.04-.26.25-.46.52-.43.28.03.68.18,1.03.79.51.87.77,2.51.33,3.48-.15.33-.36.71-.6,1.14-.65,1.17-1.47,2.62-1.48,4.06,0,1.55-.76,3.81-2.19,5.12-.85.79-1.87,1.16-2.95,1.08-.6-.05-1.08-.31-1.39-.78-.96-1.46-.01-4.54,1.04-7.57.17-.5.32-.93.4-1.22.27-.95.07-2.92-.12-4.81-.16-1.55-.32-3.16-.27-4.48.19-5.17,3.76-8.95,4.85-9.98,1.14-1.08,2.3-2.69,3.23-4.55-.82.05-1.6-.1-2.25-.61-1.94-1.53-6.78-7.57-7.82-10.02-1.01-2.37-2.15-5.05-.47-6.53.38-.34.73-.49,1.1-.45.56.05.92.5,1.33,1.01.44.55.99,1.24,1.94,1.61.34.13.75.27,1.22.43,2.93.98,7.83,2.62,7.87,7.03.02,2.05-.44,4.15-1.19,6.09.86-.32,1.7-.74,2.31-1.06.3-.15.56-.29.77-.38.54-.24,1.36-.44,2.39-.63.26-1.2.49-2.58.68-4.14.64-5.27,9.83-9.53,12.5-9.64.75-.03,1.66.01,1.96.63.33.67-.29,1.41-.94,2.18-.19.22-.6,1.08-1.04,1.98-1.53,3.15-4.09,8.44-6.97,8.98-1.24.23-2.46.42-3.59.6-.62.1-1.22.19-1.77.28-.48,2.03-1.03,3.54-1.6,4.61.03.26.02.55-.01.86-.29,2.59-3.17,4.41-3.29,4.49-1.13.45-1.84,1.77-1.7,3.03.22,1.88,2.09,3.22,5.14,3.66,2.52.37,4.1-.27,4.58-1.84.02-.2.06-.41.11-.61-1.48-.2-2.29-1.39-2.22-2.47.05-.86.65-1.43,1.45-1.4.5.02.98.44,1.33,1.19.09.2.18.41.25.63.15-.28.31-.53.47-.75.43-.58.8-.83,1.17-.78.63.09,1.06.85.97,1.69-.1.89-.79,1.79-2.4,1.91h0c-.03.28-.08.55-.16.82-.02.25-.02.49.03.7.07.33.25.71,1.01.73,1.13.04,2.1-.67,2.55-1.88.58-1.52.25-3.8-1.77-5.47-1.16-.96-1.08-1.84-.72-2.69-.71-.63-1.17-1.23-1.17-1.89,0-1.33.74-1.79,1.06-1.92.57-.24,1.22-.12,1.66.31.48.47.59,1.2.3,1.96-.19.48-.4.89-.59,1.25,0,0,0,.02-.01.02.2.16.41.33.62.49,2.15,1.7,5.09,4.02,3.86,7.51l-.22.61c-.91,2.55-1.51,4.23-.51,5.62.94,1.31,1.07,4.69-.11,6.77-.71,1.24-1.77,1.83-3.06,1.72-.96-.08-1.76-.45-2.37-1.1-.12.22-.25.43-.38.63.4.41.77.88,1.09,1.38,1.52,2.37,1.42,4.63-.24,5.76-.71.48-1.39.72-2.04.72Zm-1.56-8.39c-.12,0-.22.02-.31.08-.55.34-.58.54-.58.54,0,.01.04.07.16.14.34.2,1.04.29,1.67.09.14-.05.28-.13.41-.24-.52-.4-1.01-.61-1.36-.61Zm3.62-7.59c-.23,0-.53.3-.67.99-.2,1.01-.34,2.77.07,4.22.57-1.64.95-3.47,1.03-4.36.04-.51-.17-.81-.39-.85-.01,0-.02,0-.04,0Zm-2.76-8.99c-.29,0-.37.25-.38.46-.03.47.29,1.22,1.24,1.4-.13-1.02-.6-1.81-.83-1.87,0,0-.02,0-.02,0Zm3.18.36c-.24.22-.6.79-.91,1.47.5-.12.83-.38.96-.75.1-.31.03-.59-.04-.72Zm-8.69-7.91c-.21,0-.58.32-.8,1.23-.11.46-.02.7.03.73.01,0,.11,0,.27-.11.3-.2.63-.59.98-1.18-.09-.4-.28-.64-.45-.67-.01,0-.02,0-.03,0Zm8.81-.27c-.07,0-.14.01-.21.04-.29.12-.45.49-.45,1,0,.26.26.59.64.95.16-.3.31-.62.45-.97.15-.38.12-.69-.07-.87-.1-.1-.23-.15-.37-.15Zm-23.26-17.5c-.05,0-.17.05-.35.21-1.14,1-.15,3.33.73,5.38.98,2.3,5.7,8.2,7.52,9.63.55.43,1.31.47,2.14.32.87-2.03,1.45-4.29,1.42-6.44-.04-3.7-4.34-5.14-7.19-6.1-.49-.16-.92-.31-1.27-.44-1.2-.47-1.87-1.31-2.36-1.92-.22-.28-.5-.63-.64-.64h0Zm30.24.33c-.08,0-.18,0-.28,0-2.2.09-10.96,3.97-11.54,8.76-.17,1.43-.38,2.7-.61,3.84.44-.07.9-.14,1.39-.22,1.12-.17,2.33-.36,3.56-.59,2.38-.45,4.9-5.64,6.25-8.43.6-1.23.92-1.89,1.17-2.19.29-.34.76-.9.8-1.13-.03.02-.21-.05-.73-.05Z"/>
    <path class="cls-1" d="m18.24,97.28s-.07,0-.1-.01c-.27-.06-.44-.32-.39-.59,0-.03.6-2.98,1.38-10.28.74-6.87-3.79-13.64-7.19-15.7-1.48-.89-2.72-1.51-4.04-2.17-1.17-.58-2.39-1.19-3.84-2.02-3.24-1.86-3.63-6.05-3.98-9.74l-.02-.18c-.25-2.7.27-4.95,1.45-6.17.72-.75,1.69-1.12,2.8-1.05.68.04,1.25.28,1.68.69,1.76-.25,4.51-.29,7.28-.03-.07-.3-.11-.58-.11-.84,0-1.02.62-1.72,1.68-1.91.41-.07.85-.16,1.34-.26,2.5-.49,5.92-1.16,9.74-1.06,3.19.09,6.31,1.94,8.16,3.92,2.02-.32,4.18,2.77,6.27,5.76.97,1.38,1.88,2.69,2.62,3.4,2.43,2.32,1.18,5.78.09,8.83l-.25.7c-1.03,2.92,1.12,12.53,1.14,12.63.06.27-.11.54-.38.6-.27.06-.54-.11-.6-.38-.09-.41-2.23-9.99-1.11-13.18l.25-.7c1.04-2.9,2.12-5.9.16-7.77-.81-.78-1.75-2.12-2.75-3.55-1.37-1.97-3.16-4.52-4.53-5.19.41.61.67,1.2.75,1.72.38,2.48,1.7,3.99,3.09,5.6.79.91,1.61,1.85,2.28,2.99.99,1.67.43,5-1.49,8.9-1.84,3.74-4.98,7.92-7.51,8.23-.89.11-1.7-.21-2.36-.93-2.34-2.56-2.37-9.74-1.95-11.65.16-.72.5-1.52.86-2.36.68-1.58,1.44-3.37,1.31-5.28-.29-3.98.84-6.88,3.05-8-1.68-1.63-4.38-3.21-7.14-3.28-3.7-.1-7.06.56-9.52,1.04-.49.1-.94.18-1.35.26-.6.11-.86.39-.86.94,0,.28.06.6.17.94,3.09.38,6.06,1.16,7.56,2.47,1.04.92,1.32,2.05.82,3.27-.45,1.1-1.36,1.58-2.55,1.34-2.25-.45-5.34-3.56-6.51-6.15-2.64-.27-5.31-.26-7.04-.09.44,1.11.26,2.58-.44,3.48-.45.57-1.05.82-1.68.71-1.05-.19-1.77-.84-1.92-1.74-.18-1.08.51-2.23,1.76-2.94.06-.03.12-.06.2-.09-.09-.02-.18-.03-.27-.03-.82-.04-1.5.21-2.02.75-.97,1.01-1.4,2.97-1.17,5.38l.02.18c.34,3.62.69,7.36,3.48,8.97,1.43.82,2.63,1.42,3.79,2,1.34.67,2.6,1.3,4.11,2.21,3.73,2.25,8.46,9.3,7.67,16.67-.79,7.35-1.38,10.25-1.4,10.37-.05.24-.26.4-.49.4Zm15.51-46.27c-2.01.81-3.04,3.44-2.77,7.15.16,2.15-.7,4.14-1.38,5.74-.34.8-.67,1.55-.8,2.18-.4,1.84-.28,8.58,1.71,10.76.44.48.93.68,1.5.61,1.79-.22,4.69-3.53,6.73-7.68,1.74-3.54,2.33-6.59,1.52-7.95-.63-1.07-1.41-1.97-2.17-2.84-1.43-1.64-2.9-3.34-3.33-6.1-.08-.52-.44-1.18-1.02-1.87Zm-18.94.19c1.19,2.17,3.76,4.67,5.55,5.03.72.14,1.16-.08,1.43-.73.34-.83.16-1.51-.56-2.14-1.26-1.11-3.75-1.79-6.42-2.15Zm-9.24-.08c-.34.07-.6.14-.75.23-.88.5-1.38,1.25-1.27,1.91.08.47.48.81,1.11.92.26.05.5-.07.72-.34.43-.56.66-1.7.26-2.57-.02-.05-.05-.1-.08-.15Z"/>
    <path class="cls-1" d="m206.35,103.77c-1,0-2.14-.18-3.08-.6-1.29-.56-2.08-1.46-2.28-2.6-.27-.89-.38-2.06-.27-3.09-.71-.44-1.51-1.07-2.37-1.76l-.15-.12c-1.35-1.09-2.96-3.27-3.42-5.33-.63-2.84-4.47-5.59-7.58-7.4-.65-.45-.91-1.13-.77-1.91.28-1.56,2.07-3.28,3.33-3.61l.52-.14c1.37-.37,2.66-.72,4.76.02,3.6,1.27,4.5,4.89,5.03,7.06.16.66.32,1.29.48,1.55.05.07.11.14.29.16.03,0,.07,0,.1,0,.19-1.18.73-1.85,1.48-2.79l.13-.16c2.88-3.62,8.6-7.48,16.03-7.48,11.64,0,14.91,4.04,18.26,9.74,1.11,1.89,2.87,6.16,2.78,7.47-.02.35-.32.63-1.08,1.02-3.73,1.94-20.9,7.17-30.75,1.19-4.74-2.88-4.61-5.21-4.54-6.47v-.13c.05-.88.65-1.84,1.57-2.52.78-.58,1.63-.81,2.31-.64.54.14,1.12.6,1.86,1.18,1.21.96,2.86,2.28,4.99,2.54,3.25.49,9.32.37,11.83-.23l.92-.22c2.03-.47,6.25-1.44,6.71-2.38.02-.05.02-.08,0-.12-1.02-3.25-3.86-3.78-5.04-3.86-1.65-.11-2.75.38-2.86.61-.11.39-.14,1.13-.18,1.85-.09,1.68-.16,2.5-.74,2.73-.16.06-.48.11-.83-.23-.41-.4-.66-1.02-.92-1.67-.4-.98-.81-2-1.74-2.44-1.59-.75-3.5-.6-4.35-.04-.35.23-1.01,1.19-1.49,1.89-.89,1.29-1.25,1.83-1.79,1.68-.12-.03-.42-.16-.45-.62-.03-.43.01-.96.06-1.51.07-.79.15-1.69-.03-2.19-.23-.65-1.38-1.06-2.72-.99-1.14.06-4.03,2.08-5.13,3.26-.61.65-2.05,1.87-3.36,2.34,0,.25,0,.54.02.86.14,2.12,1.61,6.23,5,8.26,3.24,1.94,11.14,3.59,15.33,3.59,2.54,0,3.97-.4,5.12-.71.66-.18,1.22-.34,1.83-.37.88-.03,1.13.72,1.33,1.33.39,1.16.87,2.6,5.06,1.74.59-.19,1.38-.57,1.47-1.15.14-.86-1.11-2.02-1.56-2.36-.13-.07-.25-.29-.25-.52.01-.35.04-1,4.78-3.04.25-.11.55,0,.66.26.11.25,0,.55-.26.66-2.73,1.18-3.69,1.81-4.03,2.09.65.56,1.86,1.8,1.65,3.07-.14.87-.89,1.52-2.21,1.95-4.71.98-5.7-.72-6.26-2.39-.17-.52-.24-.64-.33-.65-.5.03-.99.16-1.62.33-1.14.32-2.71.75-5.38.75-4.34,0-12.38-1.67-15.84-3.73-3.72-2.22-5.34-6.73-5.49-9.05-.02-.26-.02-.5-.02-.73-.04,0-.08,0-.12,0-.45-.04-.81-.25-1.04-.61-.25-.4-.41-1.04-.61-1.85-.52-2.1-1.31-5.27-4.39-6.36-1.81-.64-2.85-.36-4.17,0l-.53.14c-.91.23-2.39,1.7-2.6,2.82-.1.53.14.76.32.89,4.74,2.75,7.45,5.46,8.02,8.02.4,1.82,1.88,3.81,3.07,4.77l.15.12c.45.37,1.23.99,1.95,1.48.1-.3.22-.57.38-.79.3-.43.71-.68,1.18-.7.76-.05,1.3.4,1.39,1.12.1.82-.44,1.89-1.27,2.04-.27.05-.58,0-.93-.13-.03.76.06,1.62.28,2.37.16.86.72,1.49,1.71,1.91,1.63.71,3.74.59,4.27.25.2-.13.24-.57.27-1,.05-.62.1-1.33.67-1.76.43-.32,1.06-.39,1.91-.21.27.06.44.32.39.59-.06.27-.33.44-.59.39-.54-.11-.93-.1-1.11.04-.21.16-.24.6-.28,1.04-.05.61-.1,1.37-.73,1.77-.42.27-1.21.42-2.13.42Zm-4.53-6.81c.25.12.46.19.61.16.2-.04.5-.52.45-.94-.02-.17-.07-.26-.34-.24-.1,0-.25.04-.42.28-.13.19-.23.44-.31.74Zm4.86-10.78c-.36,0-.82.18-1.25.5-.66.49-1.13,1.2-1.16,1.77v.13c-.07,1.12-.18,2.99,4.05,5.56,10.21,6.19,28.87-.38,30.32-1.54-.06-1.1-1.52-4.86-2.64-6.78-3.18-5.41-6.29-9.24-17.4-9.24-7.07,0-12.51,3.67-15.24,7.11l-.13.16c-.56.71-.94,1.18-1.15,1.81.87-.45,1.86-1.23,2.44-1.85,1.09-1.18,4.21-3.48,5.8-3.57,1.53-.08,3.26.39,3.72,1.64.25.7.17,1.68.09,2.62,0,.12-.02.24-.03.36.13-.19.26-.38.38-.55.61-.89,1.25-1.82,1.76-2.16,1.1-.73,3.39-.94,5.33-.03,1.29.6,1.82,1.91,2.25,2.97.15.37.29.72.45,1,.06-.42.09-1.04.12-1.49.04-.8.08-1.56.22-2.07.24-.9,1.79-1.33,3.21-1.36,2.46-.06,5.53,1.11,6.59,4.52.12.26.12.6-.04.92-.62,1.27-3.71,2.07-7.39,2.92l-.92.21c-2.6.62-8.87.75-12.19.25-2.39-.29-4.17-1.71-5.47-2.74-.59-.47-1.15-.91-1.48-1-.07-.02-.14-.03-.22-.03Z"/>
  </g>
</svg>